{"title":"Eka Lagye ZooEL ft Porshi 720p . UpScaled AC 3","uid":8415052,"size":122482062,"categoryP":"video","categoryS":"music_videos","magnet":"?xt=urn:btih:5245a8c414aeff1b831ffcc14bda0aaae4742bc6&amp;dn=Eka+Lagye+ZooEL+ft+Porshi+720p+.+UpScaled+AC+3&amp;tr=udp%3A%2F%2Ftracker.openbittorrent.com%3A80&amp;tr=udp%3A%2F%2Fopen.demonii.com%3A1337&amp;tr=udp%3A%2F%2Ftracker.coppersurfer.tk%3A6969&amp;tr=udp%3A%2F%2Fexodus.desync.com%3A6969","seeders":1,"leechers":0,"uploader":"khomeny007","files":-1,"time":1367012500,"description":"[center][b][color='navy'][size='x-large']Eka Lagye ZooEL ft Porshi  720p . UpScaled AC 3 - Team TuT[/size][/color][/b][/center]\n\n[center][IMG]http://i.imgur.com/9EWl3Di.jpg[/IMG][/center]\n\n[center][tt][color='navy'][size='medium']AlBuM - PosShi 2\nArtist- Porshi\nM DiR- ZooEL\nDirecrot - Chandan Cowdhory[/size][/color][/tt][/center]\n\n\n[tt][color='gray']General\nComplete name                    : 1. Eka Lagye . 720p . UpScaled - Tam [ TuT\nFormat                           : Matroska\nFile size                        : 117 MiB\nDuration                         : 4mn 43s\nOverall bit rate                 : 3 455 Kbps\n\nVideo\nFormat                           : AVC\nFormat/Info                      : Advanced Video Codec\nBit rate                         : 3 000 Kbps\nWidth                            : 1 280 pixels\nHeight                           : 528 pixels\nDisplay aspect ratio             : 2.40:1\nFrame rate                       : 25.000 fps\nStream size                      : 99.3 MiB (85%)\n\nAudio\nFormat                           : AC-3\nFormat/Info                      : Audio Coding 3\nMode extension                   : CM (complete main)\nCodec ID                         : A_AC3\nBit rate                         : 448 Kbps\nChannel(s)                       : 6 channels\nChannel positions                : Front: L C R, Side: L R, LFE\nStream size                      : 15.1 MiB (13%)\n[/color][/tt]\n\n\n[center][IMG]http://i.imgur.com/9EWl3Di.jpg[/IMG]\n[IMG]http://i.imgur.com/DRIa50U.jpg[/IMG]\n[IMG]http://i.imgur.com/nOo3Cct.jpg[/IMG]\n[IMG]http://i.imgur.com/xHJKDnl.jpg[/IMG]\n[IMG]http://i.imgur.com/3WnsvEv.jpg[/IMG]\n[IMG]http://i.imgur.com/bwn4kPr.jpg[/IMG]\n[IMG]http://i.imgur.com/e3s69iD.jpg[/IMG]\n[IMG]http://i.imgur.com/MHIvbjq.jpg[/IMG]\n[IMG]http://i.imgur.com/aRCAVMV.jpg[/IMG][/center]","torrent":{"xt":"urn:btih:5245a8c414aeff1b831ffcc14bda0aaae4742bc6","amp;dn":"Eka+Lagye+ZooEL+ft+Porshi+720p+.+UpScaled+AC+3","amp;tr":["udp%3A%2F%2Ftracker.openbittorrent.com%3A80","udp%3A%2F%2Fopen.demonii.com%3A1337","udp%3A%2F%2Ftracker.coppersurfer.tk%3A6969","udp%3A%2F%2Fexodus.desync.com%3A6969"],"infoHash":"5245a8c414aeff1b831ffcc14bda0aaae4742bc6","infoHashBuffer":{"type":"Buffer","data":[82,69,168,196,20,174,255,27,131,31,252,193,75,218,10,170,228,116,43,198]},"announce":[],"urlList":[]}}